<?xml version="1.0" encoding="utf-8"?>
<!-- Generator: Adobe Illustrator 21.1.0, SVG Export Plug-In . SVG Version: 6.00 Build 0)  -->
<svg version="1.1" id="Layer_1" xmlns="http://www.w3.org/2000/svg" xmlns:xlink="http://www.w3.org/1999/xlink" x="0px" y="0px"
	 viewBox="0 0 125.5 125.5" enable-background="new 0 0 125.5 125.5" xml:space="preserve">
<rect fill="none" width="125.5" height="125.5"/>
<g>
	<g>
		<g>
			<g>
				<path fill="#FFFFFF" d="M76.4,47.5c0-0.2,0.1-0.5,0.1-0.8c0-2.9-2.9-5.3-6.4-5.3c-1.3,0-2.5,0.3-3.5,0.8c-1.6-2.2-4.1-3.6-7-3.6
					c-4.6,0-8.3,3.5-8.7,8c-4.1,0.9-7.2,3.9-7.2,7.6c0,4.3,4.3,7.8,9.6,7.8c2.1,0,4-0.5,5.5-1.4c1.1,1.5,3.2,2.6,5.5,2.6
					c1.7,0,3.3-0.6,4.4-1.4c1.1,0.4,2.3,0.6,3.6,0.6c5.3,0,9.6-3.5,9.6-7.8C81.9,51.4,79.6,48.7,76.4,47.5z"/>
				<path fill="#0047BA" d="M59.5,38.7c2.9,0,5.4,1.4,7,3.6c1-0.5,2.2-0.8,3.5-0.8c3.6,0,6.4,2.4,6.4,5.3c0,0.3,0,0.5-0.1,0.8
					c3.3,1.3,5.5,3.9,5.5,7.1c0,4.3-4.3,7.8-9.6,7.8c-1.3,0-2.5-0.2-3.6-0.6c-1.2,0.9-2.7,1.4-4.4,1.4c-2.4,0-4.4-1-5.5-2.6
					c-1.6,0.9-3.5,1.4-5.5,1.4c-5.3,0-9.6-3.5-9.6-7.8c0-3.6,3-6.7,7.2-7.6C51.2,42.2,54.9,38.7,59.5,38.7z M59.2,37
					c-5.1,0-9.3,3.7-10,8.8c-4.7,1.1-7.9,4.7-7.9,8.7c0,5,4.9,9.1,11,9.1c2.1,0,4.1-0.5,5.9-1.4c1.2,1.5,3.1,2.4,5.2,2.6
					c0.3,0,0.6,0.1,1,0.1c0.6,0,1.2-0.1,1.8-0.2c1.2-0.2,2.2-0.7,3.2-1.4c1.2,0.4,2.5,0.6,3.9,0.6c6.1,0,11-4.1,11-9.1
					c0-3.4-2.3-6.5-5.9-8.1c0-0.1,0-0.3,0-0.4c0-3.5-3.4-6.3-7.6-6.3c-1.3,0-2.6,0.3-3.7,0.8C65.1,38.4,62.3,37,59.2,37L59.2,37z"/>
			</g>
			<g>
				<path fill="#0047BA" d="M75.5,48.6c5.4,3,5.1,10.4-3.5,12.6c4.5,0,8.1-3,8.1-6.6C80.1,51.9,78.2,49.7,75.5,48.6z"/>
				<path fill="#0047BA" d="M50.3,47.8c-3.5,0.8-6,3.4-6,6.4C45,51.1,47.8,48.8,50.3,47.8z"/>
				<path fill="#0047BA" d="M59.4,39.6c-4.1,0-7.4,3.1-7.8,7.1c2.7-6.7,9-7.7,14-3.9C64.2,40.9,62,39.6,59.4,39.6z"/>
			</g>
		</g>
	</g>
	<g id="curriculum_16_">
		<path fill="#0047BA" d="M90.1,44.3c0-1.2-0.5-2.3-1.3-3.1L75.1,27.6c-0.9-0.9-2-1.4-3.3-1.4h-4.6h-9H46.8
			c-6.3,0-11.4,5.1-11.4,11.4v50.3c0,3.1,1.3,6,3.3,8.1c2.1,2,4.9,3.4,8.1,3.4l0,0h32l0,0c3.1,0,6-1.3,8.1-3.4
			c2.1-2.1,3.3-4.9,3.3-8.1V44.8h0C90.2,44.7,90.1,44.5,90.1,44.3z M85.6,87.9c0,1.8-0.7,3.5-2,4.8c-1.3,1.3-3,2-4.8,2h-32
			c-1.8,0-3.5-0.7-4.9-2c-1.3-1.3-2-3-2-4.8V37.6c0-3.8,3.1-6.8,6.9-6.8h11.5h9h4.6l0,0l0,0v14h13.7V87.9z"/>
	</g>
</g>
<g>
	<path fill="#0047BA" d="M44.9,71.7l-3.5-5.1c3.9,0.6,15.7-3.4,18.5-5.9c2.3,1.7,13.2,8.2,16.3,9.3c1.1,2.8-2,13.2-4.1,17.7L65.7,86
		l3.7-8l-4.9,7.5L59.9,83L68,71.7c0,0-7.3,8-10.9,10l-4.8-3.5c4.6-2.3,8.8-6.2,11.5-9.4c0,0-10.6,7.6-13.3,8.4l-2.5-2.6
		c4.9-3.1,8.2-4.8,10.6-7.8C58.6,66.9,47.9,71,44.9,71.7z"/>
	<path fill="#0047BA" d="M61,58.6c0.5-0.8,1.6-1.5,3.6-1.3c1.2,1.5,13.2,7.8,14.3,8.3c0.3,0.7,0,2.3-0.9,3.2
		C74.8,67.7,63.3,60.6,61,58.6z"/>
	<path fill="#0047BA" d="M63.7,54.8c0.8-0.8,2.6-2.7,4.3-2.8c1.7-0.1,13.7,7.7,13.9,8.1s-0.5,4.1-2.2,4.1S63.7,54.8,63.7,54.8z"/>
	<g>
		<path fill="#0047BA" d="M72.8,52.9l0.2-0.4c0.2-0.4,4.3-10.3,5-11.6c0.5-1,1.7-1.6,3.1-1.6c1,0,1.9,0.3,2.7,0.9
			c1.2,0.9,2.3,2.5,0.8,5.3c-0.6,1.2-6.4,9.7-6.7,10l-0.3,0.4L72.8,52.9z"/>
		<path fill="#FFFFFF" d="M81,39.8c0.8,0,1.6,0.2,2.4,0.8c2,1.5,1.3,3.5,0.6,4.6c-0.6,1.2-6.6,10-6.6,10l-4-2.5
			c0,0,4.3-10.3,4.9-11.6C78.7,40.3,79.8,39.8,81,39.8 M81,38.8L81,38.8c-1.5,0-3,0.8-3.5,1.9c-0.6,1.3-4.8,11.2-5,11.6l-0.3,0.8
			l0.7,0.5l4,2.5l0.8,0.5l0.5-0.8c0.6-0.9,6-8.9,6.7-10.1c1.8-3.3,0.2-5.1-0.9-5.9C83.1,39.1,82.1,38.8,81,38.8L81,38.8z"/>
	</g>
</g>
</svg>
